<mxfile host="app.diagrams.net" modified="2023-05-20T21:44:54.130Z" agent="Mozilla/5.0 (X11; Linux x86_64) AppleWebKit/537.36 (KHTML, like Gecko) Chrome/113.0.0.0 Safari/537.36" version="21.3.2" etag="Kmx3HFr5uVWoY_i4xj7S" type="github">
  <diagram name="Page-1" id="7FtL8HfelagRUAaseeU4">
    <mxGraphModel>
      <root>
        <mxCell id="0" />
        <mxCell id="1" parent="0" />
      </root>
    </mxGraphModel>
  </diagram>
</mxfile>
